<svg width="1410" height="718" viewBox="0 0 1410 718" fill="none" xmlns="http://www.w3.org/2000/svg">
<g clip-path="url(#clip0_7_22)">
<circle cx="1367.62" cy="325.714" r="1.90476" fill="white" fill-opacity="0.35"/>
<circle cx="668.572" cy="379.048" r="1.90476" fill="white" fill-opacity="0.35"/>
<circle cx="1052.38" cy="282.857" r="1.90476" fill="white" fill-opacity="0.35"/>
<circle cx="839.047" cy="567.619" r="1.90476" fill="white" fill-opacity="0.35"/>
<circle cx="672.381" cy="434.286" r="1.90476" fill="white" fill-opacity="0.35"/>
<circle cx="188.572" cy="540" r="1.90476" fill="white" fill-opacity="0.35"/>
<circle cx="589.524" cy="149.524" r="1.90476" fill="white" fill-opacity="0.35"/>
<circle cx="1121.9" cy="43.8095" r="1.90476" fill="white" fill-opacity="0.35"/>
<circle cx="712.381" cy="24.7619" r="1.90476" fill="white" fill-opacity="0.35"/>
<circle cx="578.095" cy="27.6191" r="1.90476" fill="white" fill-opacity="0.35"/>
<circle cx="1167.62" cy="144.762" r="1.90476" fill="white" fill-opacity="0.35"/>
<circle cx="834.286" cy="614.286" r="1.90476" fill="white" fill-opacity="0.35"/>
<circle cx="921.905" cy="12.381" r="1.90476" fill="white" fill-opacity="0.35"/>
<circle cx="889.524" cy="592.381" r="1.90476" fill="white" fill-opacity="0.35"/>
<circle cx="1089.52" cy="467.619" r="1.90476" fill="white" fill-opacity="0.35"/>
<circle cx="225.714" cy="248.572" r="1.90476" fill="white" fill-opacity="0.35"/>
<circle cx="1113.33" cy="701.905" r="1.90476" fill="white" fill-opacity="0.35"/>
<circle cx="1189.52" cy="214.286" r="1.90476" fill="white" fill-opacity="0.35"/>
<circle cx="251.428" cy="546.667" r="1.90476" fill="white" fill-opacity="0.35"/>
<circle cx="1280" cy="377.143" r="1.90476" fill="white" fill-opacity="0.35"/>
<circle cx="316.191" cy="527.619" r="1.90476" fill="white" fill-opacity="0.35"/>
<circle cx="1216.19" cy="614.286" r="1.90476" fill="white" fill-opacity="0.35"/>
<circle cx="1094.29" cy="679.048" r="1.90476" fill="white" fill-opacity="0.35"/>
<circle cx="1134.29" cy="463.81" r="1.90476" fill="white" fill-opacity="0.35"/>
<circle cx="113.333" cy="647.619" r="1.90476" fill="white" fill-opacity="0.35"/>
<circle cx="1109.52" cy="326.667" r="1.90476" fill="white" fill-opacity="0.35"/>
<circle cx="255.238" cy="620" r="1.90476" fill="white" fill-opacity="0.35"/>
<circle cx="485.714" cy="516.191" r="1.90476" fill="white" fill-opacity="0.35"/>
<circle cx="253.333" cy="656.191" r="1.90476" fill="white" fill-opacity="0.35"/>
<circle cx="368.572" cy="213.333" r="1.90476" fill="white" fill-opacity="0.35"/>
<circle cx="443.809" cy="95.2381" r="1.90476" fill="white" fill-opacity="0.35"/>
<circle cx="872.381" cy="656.191" r="1.90476" fill="white" fill-opacity="0.35"/>
<circle cx="640" cy="403.81" r="1.90476" fill="white" fill-opacity="0.35"/>
<circle cx="394.286" cy="674.286" r="1.90476" fill="white" fill-opacity="0.35"/>
<circle cx="689.524" cy="522.857" r="1.90476" fill="white" fill-opacity="0.35"/>
<circle cx="608.572" cy="256.191" r="1.90476" fill="white" fill-opacity="0.35"/>
<circle cx="1244.76" cy="629.524" r="1.90476" fill="white" fill-opacity="0.35"/>
<circle cx="850.476" cy="304.762" r="1.90476" fill="white" fill-opacity="0.35"/>
<circle cx="125.714" cy="588.572" r="1.90476" fill="white" fill-opacity="0.35"/>
<circle cx="302.857" cy="329.524" r="1.90476" fill="white" fill-opacity="0.35"/>
<circle cx="739.047" cy="442.857" r="1.90476" fill="white" fill-opacity="0.35"/>
<circle cx="876.191" cy="216.191" r="1.90476" fill="white" fill-opacity="0.35"/>
<circle cx="440" cy="587.619" r="1.90476" fill="white" fill-opacity="0.35"/>
<circle cx="763.809" cy="30.4762" r="1.90476" fill="white" fill-opacity="0.35"/>
<circle cx="357.143" cy="512.381" r="1.90476" fill="white" fill-opacity="0.35"/>
<circle cx="1213.33" cy="290.476" r="1.90476" fill="white" fill-opacity="0.35"/>
<circle cx="1150.48" cy="15.2381" r="1.90476" fill="white" fill-opacity="0.35"/>
<circle cx="134.286" cy="713.333" r="1.90476" fill="white" fill-opacity="0.35"/>
<circle cx="9.52381" cy="139.048" r="1.90476" fill="white" fill-opacity="0.35"/>
<circle cx="575.238" cy="614.286" r="1.90476" fill="white" fill-opacity="0.35"/>
<circle cx="194.286" cy="11.4286" r="1.90476" fill="white" fill-opacity="0.35"/>
<circle cx="947.619" cy="460" r="1.90476" fill="white" fill-opacity="0.35"/>
<circle cx="665.714" cy="646.667" r="1.90476" fill="white" fill-opacity="0.35"/>
<circle cx="607.619" cy="81.9048" r="1.90476" fill="white" fill-opacity="0.35"/>
<circle cx="848.572" cy="503.81" r="1.90476" fill="white" fill-opacity="0.35"/>
<circle cx="1008.57" cy="20" r="1.90476" fill="white" fill-opacity="0.35"/>
<circle cx="883.809" cy="676.191" r="1.90476" fill="white" fill-opacity="0.35"/>
<circle cx="39.0473" cy="433.333" r="1.90476" fill="white" fill-opacity="0.35"/>
<circle cx="539.047" cy="115.238" r="1.90476" fill="white" fill-opacity="0.35"/>
<circle cx="770.476" cy="150.476" r="1.90476" fill="white" fill-opacity="0.35"/>
<circle cx="963.809" cy="112.381" r="1.90476" fill="white" fill-opacity="0.35"/>
<circle cx="971.428" cy="108.572" r="1.90476" fill="white" fill-opacity="0.35"/>
<circle cx="640.953" cy="222.857" r="1.90476" fill="white" fill-opacity="0.35"/>
<circle cx="641.905" cy="240" r="1.90476" fill="white" fill-opacity="0.35"/>
<circle cx="1287.62" cy="338.095" r="1.90476" fill="white" fill-opacity="0.35"/>
<circle cx="187.619" cy="401.905" r="1.90476" fill="white" fill-opacity="0.35"/>
<circle cx="814.286" cy="104.762" r="1.90476" fill="white" fill-opacity="0.35"/>
<circle cx="478.095" cy="380" r="1.90476" fill="white" fill-opacity="0.35"/>
<circle cx="39.0473" cy="32.381" r="1.90476" fill="white" fill-opacity="0.35"/>
<circle cx="592.381" cy="161.905" r="1.90476" fill="white" fill-opacity="0.35"/>
<circle cx="614.286" cy="581.905" r="1.90476" fill="white" fill-opacity="0.35"/>
<circle cx="87.6186" cy="377.143" r="1.90476" fill="white" fill-opacity="0.35"/>
<circle cx="360" cy="438.095" r="1.90476" fill="white" fill-opacity="0.35"/>
<circle cx="434.286" cy="559.048" r="1.90476" fill="white" fill-opacity="0.35"/>
<circle cx="1354.29" cy="563.81" r="1.90476" fill="white" fill-opacity="0.35"/>
<circle cx="176.191" cy="660" r="1.90476" fill="white" fill-opacity="0.35"/>
<circle cx="802.857" cy="114.286" r="1.90476" fill="white" fill-opacity="0.35"/>
<circle cx="1060" cy="188.572" r="1.90476" fill="white" fill-opacity="0.35"/>
<circle cx="401.905" cy="349.524" r="1.90476" fill="white" fill-opacity="0.35"/>
<circle cx="991.428" cy="73.3334" r="1.90476" fill="white" fill-opacity="0.35"/>
<circle cx="1060.95" cy="537.143" r="1.90476" fill="white" fill-opacity="0.35"/>
<circle cx="71.4282" cy="662.857" r="1.90476" fill="white" fill-opacity="0.35"/>
<circle cx="943.809" cy="527.619" r="1.90476" fill="white" fill-opacity="0.35"/>
<circle cx="566.667" cy="541.905" r="1.90476" fill="white" fill-opacity="0.35"/>
<circle cx="1029.52" cy="147.619" r="1.90476" fill="white" fill-opacity="0.35"/>
</g>
<defs>
<clipPath id="clip0_7_22">
<rect width="1464" height="718" fill="white"/>
</clipPath>
</defs>
</svg>
