<svg width="10" height="10" viewBox="0 0 10 10" fill="none" xmlns="http://www.w3.org/2000/svg">
<g clip-path="url(#clip0_1063_6736)">
<path d="M9.72157 6.64489C9.90162 6.12951 9.99986 5.57604 9.99986 4.99998C9.99986 4.42391 9.90162 3.87044 9.72157 3.35506C9.71717 3.33958 9.71197 3.32448 9.70566 3.30995C9.01119 1.38216 7.16405 0 4.99993 0C2.8358 0 0.988623 1.38216 0.294198 3.30995C0.28789 3.32453 0.282634 3.33958 0.278286 3.35506C0.0982412 3.87044 0 4.42391 0 4.99998C0 5.57604 0.0982412 6.12951 0.278286 6.64489C0.282682 6.66038 0.28789 6.67548 0.294198 6.69C0.988671 8.61784 2.8358 9.99995 4.99993 9.99995C7.16405 9.99995 9.01119 8.61779 9.70566 6.69C9.71197 6.67548 9.71717 6.66042 9.72157 6.64489ZM4.99993 9.28326C4.80951 9.28326 4.50251 8.93865 4.24592 8.16878C4.12207 7.79727 4.02292 7.37019 3.95067 6.9056H6.04919C5.97694 7.37019 5.87779 7.79722 5.75399 8.16878C5.49735 8.93865 5.19034 9.28326 4.99993 9.28326ZM3.8637 6.18886C3.82925 5.80669 3.81105 5.40799 3.81105 4.99998C3.81105 4.59196 3.82925 4.19326 3.8637 3.8111H6.1361C6.17056 4.19326 6.18876 4.59196 6.18876 4.99998C6.18876 5.40799 6.17056 5.80669 6.1361 6.18886H3.8637ZM0.716692 5.00002C0.716692 4.58766 0.775417 4.18877 0.884696 3.81114H3.14482C3.11132 4.20119 3.09431 4.60094 3.09431 5.00002C3.09431 5.3991 3.11127 5.79885 3.14482 6.1889H0.884696C0.775417 5.81123 0.716692 5.41239 0.716692 5.00002ZM4.99993 0.71674C5.19034 0.71674 5.49739 1.06135 5.75399 1.83122C5.87779 2.20273 5.97699 2.62981 6.04919 3.09436H3.95062C4.02287 2.62977 4.12202 2.20273 4.24587 1.83122C4.50251 1.06135 4.80951 0.71674 4.99993 0.71674ZM6.85499 3.81114H9.11511C9.22439 4.18877 9.28312 4.58766 9.28312 5.00002C9.28312 5.41239 9.22439 5.81128 9.11511 6.1889H6.85499C6.88849 5.79885 6.9055 5.3991 6.9055 5.00002C6.9055 4.60094 6.88849 4.20119 6.85499 3.81114ZM8.83506 3.0944H6.77276C6.64528 2.21535 6.42657 1.42669 6.11976 0.86563C7.30931 1.18812 8.29483 2.01146 8.83506 3.0944ZM3.88005 0.865583C3.57323 1.42665 3.35453 2.2153 3.22705 3.0944H1.16475C1.70503 2.01146 2.6905 1.18812 3.88005 0.865583ZM1.16475 6.9056H3.22705C3.35453 7.78465 3.57323 8.57331 3.88005 9.13442C2.6905 8.81188 1.70503 7.98859 1.16475 6.9056ZM6.11976 9.13442C6.42657 8.57335 6.64528 7.7847 6.77276 6.9056H8.83506C8.29483 7.98859 7.30931 8.81188 6.11976 9.13442Z" fill="white"/>
</g>
<defs>
<clipPath id="clip0_1063_6736">
<rect width="10" height="10" fill="white"/>
</clipPath>
</defs>
</svg>
