<svg width="15" height="15" viewBox="0 0 15 15" fill="none" xmlns="http://www.w3.org/2000/svg">
<path d="M12.3581 12.8747L9.11641 11.7942C9.11641 11.7942 8.42522 12.306 6.95524 12.306C4.28542 12.306 2.12109 10.1417 2.12109 7.47185C2.12109 4.80202 4.28542 2.6377 6.95524 2.6377C9.62507 2.6377 11.7894 4.80202 11.7894 7.47185C11.7894 8.89365 11.2776 9.63302 11.2776 9.63302L12.3581 12.8747Z" fill="black" fill-opacity="0.15"/>
<path d="M4.96471 6.3344H8.94578M4.96471 8.60929H7.80833M9.11641 11.7942L12.3581 12.8747L11.2776 9.63302C11.2776 9.63302 11.7894 8.89365 11.7894 7.47185C11.7894 4.80202 9.62507 2.6377 6.95524 2.6377C4.28542 2.6377 2.12109 4.80202 2.12109 7.47185C2.12109 10.1417 4.28542 12.306 6.95524 12.306C8.42522 12.306 9.11641 11.7942 9.11641 11.7942Z" stroke="#727272" strokeWidth="1.13745" stroke-linecap="round" stroke-linejoin="round"/>
</svg>
