<svg width="12" height="12" viewBox="0 0 12 12" fill="none" xmlns="http://www.w3.org/2000/svg">
<g clip-path="url(#clip0_1063_6729)">
<path fill-rule="evenodd" clip-rule="evenodd" d="M8.78305 10.883C8.93688 10.9919 9.13515 11.0191 9.31191 10.9523C9.48868 10.8849 9.61862 10.7339 9.6578 10.5509C10.073 8.59983 11.08 3.66139 11.4579 1.88657C11.4866 1.7528 11.4388 1.61377 11.3337 1.52444C11.2286 1.4351 11.0829 1.4093 10.953 1.45755C8.94978 2.19901 2.78066 4.51368 0.259128 5.44672C0.0990832 5.50596 -0.00506512 5.65979 0.000190073 5.82844C0.00592301 5.99756 0.119626 6.14423 0.283493 6.19343C1.41431 6.53168 2.89867 7.00226 2.89867 7.00226C2.89867 7.00226 3.59235 9.09717 3.95401 10.1625C3.99939 10.2963 4.10402 10.4014 4.24208 10.4377C4.37968 10.4735 4.52682 10.4358 4.62954 10.3388C5.21047 9.79037 6.10863 8.94238 6.10863 8.94238C6.10863 8.94238 7.81514 10.1936 8.78305 10.883ZM3.52308 6.73759L4.32521 9.38334L4.50341 7.70789C4.50341 7.70789 7.60254 4.9126 9.36924 3.31932C9.42084 3.2725 9.428 3.19415 9.38501 3.13921C9.34249 3.08427 9.26414 3.07137 9.20537 3.10864C7.15776 4.41622 3.52308 6.73759 3.52308 6.73759Z" fill="white"/>
</g>
<defs>
<clipPath id="clip0_1063_6729">
<rect width="11.4659" height="11.4659" fill="white"/>
</clipPath>
</defs>
</svg>
