<svg width="12" height="12" viewBox="0 0 12 12" fill="none" xmlns="http://www.w3.org/2000/svg">
<path d="M6.35035 7.32789H2.4423C1.36313 7.32789 0.488281 8.20274 0.488281 9.28191V10.2589H8.30437V9.28191C8.30437 8.20274 7.42953 7.32789 6.35035 7.32789Z" fill="black" fill-opacity="0.15"/>
<path d="M4.39633 5.37387C5.4755 5.37387 6.35035 4.49902 6.35035 3.41984C6.35035 2.34067 5.4755 1.46582 4.39633 1.46582C3.31715 1.46582 2.4423 2.34067 2.4423 3.41984C2.4423 4.49902 3.31715 5.37387 4.39633 5.37387Z" fill="black" fill-opacity="0.15"/>
<path d="M9.28139 7.32789C10.3606 7.32789 11.2354 8.20274 11.2354 9.28191V10.2589H10.2584M7.81587 5.3123C8.65865 5.09538 9.28139 4.33033 9.28139 3.41984C9.28139 2.50934 8.65865 1.74429 7.81587 1.52738M6.35035 3.41984C6.35035 4.49902 5.4755 5.37387 4.39633 5.37387C3.31715 5.37387 2.4423 4.49902 2.4423 3.41984C2.4423 2.34067 3.31715 1.46582 4.39633 1.46582C5.4755 1.46582 6.35035 2.34067 6.35035 3.41984ZM2.4423 7.32789H6.35035C7.42953 7.32789 8.30437 8.20274 8.30437 9.28191V10.2589H0.488281V9.28191C0.488281 8.20274 1.36313 7.32789 2.4423 7.32789Z" stroke="#727272" stroke-width="0.977012" stroke-linecap="round" stroke-linejoin="round"/>
</svg>
