<svg width="16" height="16" viewBox="0 0 16 16" fill="none" xmlns="http://www.w3.org/2000/svg">
<path fill-rule="evenodd" clip-rule="evenodd" d="M15.5 8C15.5 5.19615 15.5 3.79423 14.8971 2.75C14.5022 2.06591 13.9341 1.49784 13.25 1.10289C12.2058 0.5 10.8038 0.5 8 0.5C5.19615 0.5 3.79423 0.5 2.75 1.10289C2.06591 1.49784 1.49784 2.06591 1.10289 2.75C0.5 3.79423 0.5 5.19615 0.5 8C0.5 10.8038 0.5 12.2058 1.10289 13.25C1.49784 13.9341 2.06591 14.5022 2.75 14.8971C3.79423 15.5 5.19615 15.5 8 15.5C10.8038 15.5 12.2058 15.5 13.25 14.8971C13.9341 14.5022 14.5022 13.9341 14.8971 13.25C15.5 12.2058 15.5 10.8038 15.5 8ZM5.39775 9.89775C5.17808 10.1174 4.82192 10.1174 4.60225 9.89775C4.38258 9.67808 4.38258 9.32192 4.60225 9.10225L6.54159 7.16291C7.34705 6.35745 8.65295 6.35746 9.45841 7.16291L11.3977 9.10225C11.6174 9.32192 11.6174 9.67808 11.3977 9.89775C11.1781 10.1174 10.8219 10.1174 10.6023 9.89775L8.66291 7.95841C8.2968 7.59229 7.70321 7.59229 7.33709 7.95841L5.39775 9.89775Z" fill="#9F84EB" fill-opacity="0.5"/>
</svg>
