<svg width="12" height="12" viewBox="0 0 12 12" fill="none" xmlns="http://www.w3.org/2000/svg">
<path fill-rule="evenodd" clip-rule="evenodd" d="M3.66667 1.91667H8.21375C8.86417 1.91667 9.09983 1.98433 9.33725 2.1115C9.57467 2.23867 9.76133 2.42533 9.8885 2.66275C10.0157 2.90017 10.0833 3.13583 10.0833 3.78625V8.33333C10.0833 8.48804 10.1448 8.63642 10.2542 8.74581C10.3636 8.85521 10.512 8.91667 10.6667 8.91667C10.8214 8.91667 10.9697 8.85521 11.0791 8.74581C11.1885 8.63642 11.25 8.48804 11.25 8.33333V3.74133C11.25 2.70125 11.1415 2.32383 10.9385 1.9435C10.7396 1.56772 10.4323 1.26042 10.0565 1.0615C9.67617 0.8585 9.29875 0.75 8.25867 0.75H3.66667C3.51196 0.75 3.36358 0.811458 3.25419 0.920854C3.14479 1.03025 3.08333 1.17862 3.08333 1.33333C3.08333 1.48804 3.14479 1.63642 3.25419 1.74581C3.36358 1.85521 3.51196 1.91667 3.66667 1.91667ZM8.17058 3.27817C7.93317 3.151 7.6975 3.08333 7.04708 3.08333H2.61958C1.96917 3.08333 1.7335 3.151 1.49608 3.27817C1.26122 3.4025 1.06916 3.59456 0.944833 3.82942C0.817667 4.06683 0.75 4.3025 0.75 4.95292V9.38042C0.75 10.0302 0.817667 10.2665 0.944833 10.5039C1.072 10.7413 1.25867 10.928 1.49608 11.0552C1.7335 11.1823 1.96917 11.25 2.61958 11.25H7.04708C7.69692 11.25 7.93317 11.1823 8.17058 11.0552C8.408 10.928 8.59467 10.7413 8.72183 10.5039C8.849 10.2665 8.91667 10.0308 8.91667 9.38042V4.95292C8.91667 4.3025 8.849 4.06683 8.72183 3.82942C8.5975 3.59456 8.40544 3.4025 8.17058 3.27817Z" fill="#9F84EB"/>
</svg>
