<svg width="14" height="14" viewBox="0 0 14 14" fill="none" xmlns="http://www.w3.org/2000/svg">
<g clip-path="url(#clip0_86_6683)">
<mask id="mask0_86_6683" style="mask-type:luminance" maskUnits="userSpaceOnUse" x="0" y="0" width="14" height="14">
<path d="M0 0H14V14H0V0Z" fill="white"/>
</mask>
<g mask="url(#mask0_86_6683)">
<path fill-rule="evenodd" clip-rule="evenodd" d="M4.66667 2.91667H9.21375C9.86417 2.91667 10.0998 2.98433 10.3372 3.1115C10.5747 3.23867 10.7613 3.42533 10.8885 3.66275C11.0157 3.90017 11.0833 4.13583 11.0833 4.78625V9.33333C11.0833 9.48804 11.1448 9.63642 11.2542 9.74581C11.3636 9.85521 11.512 9.91667 11.6667 9.91667C11.8214 9.91667 11.9697 9.85521 12.0791 9.74581C12.1885 9.63642 12.25 9.48804 12.25 9.33333V4.74133C12.25 3.70125 12.1415 3.32383 11.9385 2.9435C11.7396 2.56772 11.4323 2.26042 11.0565 2.0615C10.6762 1.8585 10.2987 1.75 9.25867 1.75H4.66667C4.51196 1.75 4.36358 1.81146 4.25419 1.92085C4.14479 2.03025 4.08333 2.17862 4.08333 2.33333C4.08333 2.48804 4.14479 2.63642 4.25419 2.74581C4.36358 2.85521 4.51196 2.91667 4.66667 2.91667ZM9.17058 4.27817C8.93317 4.151 8.6975 4.08333 8.04708 4.08333H3.61958C2.96917 4.08333 2.7335 4.151 2.49608 4.27817C2.26122 4.4025 2.06916 4.59456 1.94483 4.82942C1.81767 5.06683 1.75 5.3025 1.75 5.95292V10.3804C1.75 11.0302 1.81767 11.2665 1.94483 11.5039C2.072 11.7413 2.25867 11.928 2.49608 12.0552C2.7335 12.1823 2.96917 12.25 3.61958 12.25H8.04708C8.69692 12.25 8.93317 12.1823 9.17058 12.0552C9.408 11.928 9.59467 11.7413 9.72183 11.5039C9.849 11.2665 9.91667 11.0308 9.91667 10.3804V5.95292C9.91667 5.3025 9.849 5.06683 9.72183 4.82942C9.5975 4.59456 9.40544 4.4025 9.17058 4.27817Z" fill="#9F84EB"/>
</g>
</g>
<defs>
<clipPath id="clip0_86_6683">
<rect width="14" height="14" fill="white"/>
</clipPath>
</defs>
</svg>
