<svg width="17" height="16" viewBox="0 0 17 16" fill="none" xmlns="http://www.w3.org/2000/svg">
<path d="M5.69806 0.893555H3.43584C2.78861 0.893555 2.19694 1.25923 1.9075 1.83812L0.121094 5.41093L3.67986 5.83798L5.69806 0.893555Z" fill="#B69DFE"/>
<path d="M0.397567 6.73485L5.65055 13.2013L3.60992 7.12033L0.397567 6.73485Z" fill="#B69DFE"/>
<path d="M9.14396 14.9134C8.63545 15.0757 8.08542 15.0757 7.5769 14.9134L5.00174 7.23962C7.23867 7.37848 9.48206 7.37848 11.719 7.23962L9.14396 14.9134Z" fill="#B69DFE"/>
<path d="M11.0703 13.2011L16.3232 6.73485L13.1108 7.12033L11.0703 13.2011Z" fill="#B69DFE"/>
<path d="M16.5996 5.41093L14.8132 1.83812C14.5238 1.25923 13.9321 0.893555 13.2849 0.893555H11.0228L13.0409 5.83798L16.5996 5.41093Z" fill="#B69DFE"/>
<path d="M9.63863 0.893555H7.08226L5.01571 5.95643C7.24325 6.09748 9.47749 6.09748 11.705 5.95643L9.63863 0.893555Z" fill="#B69DFE"/>
</svg>
