<svg width="40" height="41" viewBox="0 0 40 41" fill="none" xmlns="http://www.w3.org/2000/svg">
<path fill-rule="evenodd" clip-rule="evenodd" d="M20.0998 0.395846H19.9005C18.1784 0.395788 16.7424 0.39575 15.6024 0.549007C14.3991 0.710792 13.3128 1.06666 12.4398 1.93964C11.5668 2.81263 11.2109 3.89899 11.0492 5.10226C10.9393 5.91947 10.9082 7.87366 10.8994 9.54919C7.02345 9.67579 4.69627 10.1283 3.07901 11.7455C0.833496 13.991 0.833496 17.6052 0.833496 24.8333C0.833496 32.0615 0.833496 35.6757 3.07901 37.9211C5.32451 40.1667 8.93862 40.1667 16.1668 40.1667H23.8335C31.0616 40.1667 34.6759 40.1667 36.9213 37.9211C39.1668 35.6757 39.1668 32.0615 39.1668 24.8333C39.1668 17.6052 39.1668 13.991 36.9213 11.7455C35.304 10.1283 32.977 9.67579 29.1009 9.54919C29.0921 7.87366 29.061 5.91947 28.9512 5.10226C28.7894 3.89899 28.4335 2.81263 27.5605 1.93964C26.6876 1.06666 25.6012 0.710792 24.398 0.549007C23.2579 0.39575 21.822 0.395788 20.0998 0.395846ZM26.2253 9.50362C26.2167 7.88087 26.1891 6.13448 26.1019 5.48536C25.9828 4.60088 25.7774 4.22236 25.5276 3.97258C25.2779 3.7228 24.8994 3.51729 24.0148 3.39838C23.0891 3.27391 21.8478 3.27085 20.0002 3.27085C18.1525 3.27085 16.9113 3.27391 15.9855 3.39838C15.101 3.51729 14.7225 3.7228 14.4727 3.97258C14.2229 4.22236 14.0174 4.60088 13.8985 5.48536C13.8112 6.13448 13.7837 7.88087 13.775 9.50362C14.5252 9.50001 15.3213 9.50001 16.1668 9.50001H23.8335C24.6791 9.50001 25.4751 9.50001 26.2253 9.50362ZM20.0002 15.7292C20.794 15.7292 21.4377 16.3728 21.4377 17.1667V17.1862C23.5245 17.712 25.271 19.3574 25.271 21.6388C25.271 22.4327 24.6274 23.0763 23.8335 23.0763C23.0396 23.0763 22.396 22.4327 22.396 21.6388C22.396 20.9028 21.5799 19.882 20.0002 19.882C18.4204 19.882 17.6043 20.9028 17.6043 21.6388C17.6043 22.375 18.4204 23.3958 20.0002 23.3958C22.6546 23.3958 25.271 25.2355 25.271 28.0279C25.271 30.3093 23.5245 31.9547 21.4377 32.4805V32.5C21.4377 33.2939 20.794 33.9375 20.0002 33.9375C19.2063 33.9375 18.5627 33.2939 18.5627 32.5V32.4805C16.4758 31.9547 14.7293 30.3093 14.7293 28.0279C14.7293 27.234 15.3729 26.5904 16.1668 26.5904C16.9607 26.5904 17.6043 27.234 17.6043 28.0279C17.6043 28.7639 18.4204 29.7847 20.0002 29.7847C21.5799 29.7847 22.396 28.7639 22.396 28.0279C22.396 27.2917 21.5799 26.2708 20.0002 26.2708C17.3458 26.2708 14.7293 24.4314 14.7293 21.6388C14.7293 19.3574 16.4758 17.712 18.5627 17.1862V17.1667C18.5627 16.3728 19.2063 15.7292 20.0002 15.7292Z" fill="#9F84EB"/>
</svg>
