<svg width="53" height="37" viewBox="0 0 53 37" fill="none" xmlns="http://www.w3.org/2000/svg">
<path d="M53 23.9728C53 24.6065 52.7696 25.1826 52.3087 25.5859L41.5935 36.3011C41.1326 36.7619 40.5565 36.9348 39.9804 36.9348C39.4043 36.9348 38.7707 36.6467 38.3674 36.2435C37.4457 35.3217 37.4457 33.8239 38.3674 32.9022L45.1076 25.9891H22.5826C21.3152 25.9891 20.2783 24.9522 20.2783 23.6848C20.2783 22.4174 21.3152 21.3804 22.5826 21.3804H45.1076L38.3674 14.7554C37.4457 13.8337 37.4457 12.5087 38.3674 11.6446C39.2891 10.7228 40.7293 10.7228 41.6511 11.6446L52.3663 22.3598C52.7696 22.763 53 23.3391 53 23.9728ZM7.89239 15.6196H30.4174C31.6848 15.6196 32.7217 14.5826 32.7217 13.3152C32.7217 12.0478 31.6848 11.0109 30.4174 11.0109H7.89239L14.6326 4.09781C15.5543 3.17608 15.5543 1.67825 14.6326 0.75651C13.7109 -0.165229 12.2707 -0.165228 11.3489 0.698902L0.691304 11.4141C0.230435 11.8174 0 12.3935 0 13.0272C0 13.6609 0.230435 14.2369 0.691304 14.6402L11.4065 25.3554C11.8674 25.8163 12.4435 26.0467 13.0196 26.0467C13.5957 26.0467 14.2293 25.8163 14.6326 25.3554C15.5543 24.4337 15.5543 23.1087 14.6326 22.2446L7.89239 15.6196Z" fill="#9F84EB"/>
</svg>
