<svg width="10" height="10" viewBox="0 0 10 10" fill="none" xmlns="http://www.w3.org/2000/svg">
<g clip-path="url(#clip0_133_551)">
<path d="M9.72182 6.64489C9.90186 6.12951 10.0001 5.57604 10.0001 4.99998C10.0001 4.42391 9.90186 3.87044 9.72182 3.35506C9.71742 3.33958 9.71221 3.32448 9.7059 3.30995C9.01143 1.38216 7.1643 0 5.00017 0C2.83605 0 0.988867 1.38216 0.294442 3.30995C0.288135 3.32453 0.282879 3.33958 0.27853 3.35506C0.0984853 3.87044 0.000244141 4.42391 0.000244141 4.99998C0.000244141 5.57604 0.0984853 6.12951 0.27853 6.64489C0.282926 6.66038 0.288135 6.67548 0.294442 6.69C0.988915 8.61784 2.83605 9.99995 5.00017 9.99995C7.1643 9.99995 9.01143 8.61779 9.7059 6.69C9.71221 6.67548 9.71742 6.66042 9.72182 6.64489ZM5.00017 9.28326C4.80976 9.28326 4.50276 8.93865 4.24616 8.16878C4.12231 7.79727 4.02316 7.37019 3.95091 6.9056H6.04943C5.97718 7.37019 5.87804 7.79722 5.75423 8.16878C5.49759 8.93865 5.19059 9.28326 5.00017 9.28326ZM3.86395 6.18886C3.8295 5.80669 3.81129 5.40799 3.81129 4.99998C3.81129 4.59196 3.8295 4.19326 3.86395 3.8111H6.13635C6.1708 4.19326 6.189 4.59196 6.189 4.99998C6.189 5.40799 6.1708 5.80669 6.13635 6.18886H3.86395ZM0.716936 5.00002C0.716936 4.58766 0.775661 4.18877 0.88494 3.81114H3.14506C3.11156 4.20119 3.09455 4.60094 3.09455 5.00002C3.09455 5.3991 3.11152 5.79885 3.14506 6.1889H0.88494C0.775661 5.81123 0.716936 5.41239 0.716936 5.00002ZM5.00017 0.71674C5.19059 0.71674 5.49764 1.06135 5.75423 1.83122C5.87804 2.20273 5.97723 2.62981 6.04943 3.09436H3.95087C4.02311 2.62977 4.12226 2.20273 4.24611 1.83122C4.50276 1.06135 4.80976 0.71674 5.00017 0.71674ZM6.85524 3.81114H9.11536C9.22464 4.18877 9.28336 4.58766 9.28336 5.00002C9.28336 5.41239 9.22464 5.81128 9.11536 6.1889H6.85524C6.88873 5.79885 6.90574 5.3991 6.90574 5.00002C6.90574 4.60094 6.88873 4.20119 6.85524 3.81114ZM8.8353 3.0944H6.773C6.64552 2.21535 6.42682 1.42669 6.12001 0.86563C7.30956 1.18812 8.29507 2.01146 8.8353 3.0944ZM3.88029 0.865583C3.57348 1.42665 3.35478 2.2153 3.22729 3.0944H1.16499C1.70527 2.01146 2.69074 1.18812 3.88029 0.865583ZM1.16499 6.9056H3.22729C3.35478 7.78465 3.57348 8.57331 3.88029 9.13442C2.69074 8.81188 1.70527 7.98859 1.16499 6.9056ZM6.12001 9.13442C6.42682 8.57335 6.64552 7.7847 6.773 6.9056H8.8353C8.29507 7.98859 7.30956 8.81188 6.12001 9.13442Z" fill="white"/>
</g>
<defs>
<clipPath id="clip0_133_551">
<rect width="10" height="10" fill="white"/>
</clipPath>
</defs>
</svg>
