<svg width="16" height="18" viewBox="0 0 16 18" fill="none" xmlns="http://www.w3.org/2000/svg">
<path fill-rule="evenodd" clip-rule="evenodd" d="M4.55974 6.29566C4.99049 7.83216 5.08195 8.15837 5.86528 8.9417C7.57402 10.6504 10.7757 7.59179 9.37687 5.88305C7.35844 3.31994 10.7757 0.756836 10.7757 0.756836C10.7757 0.756836 11.2033 3.74713 13.7853 5.88305C15.9023 8.87334 16.0911 14.3883 10.7757 16.5627C3.46589 19.553 -3.32106 10.1549 3.94107 4.17431C4.21781 5.07602 4.40943 5.75952 4.55974 6.29566ZM6.38298 12.6699C6.94783 13.0112 7.92691 13.1614 8.83066 11.8509C9.96035 10.2128 10.3369 14.9223 7.88923 14.9223C6.57126 14.9223 6.06918 13.489 6.38298 12.6699Z" fill="#FF7D04"/>
</svg>
