<svg width="16" height="16" viewBox="0 0 16 16" fill="none" xmlns="http://www.w3.org/2000/svg">
<path d="M3.38411 1.67992C3.20733 1.46778 2.89205 1.43912 2.67991 1.6159C2.46777 1.79268 2.43911 2.10797 2.61589 2.3201L4.28256 4.3201C4.45934 4.53224 4.77462 4.56091 4.98676 4.38412C5.1989 4.20734 5.22756 3.89206 5.05078 3.67992L3.38411 1.67992Z" fill="#84FF77"/>
<path d="M13.3841 2.3201C13.5609 2.10797 13.5322 1.79268 13.3201 1.6159C13.108 1.43912 12.7927 1.46778 12.6159 1.67992L10.9492 3.67992C10.7724 3.89206 10.8011 4.20734 11.0132 4.38412C11.2254 4.56091 11.5407 4.53224 11.7174 4.3201L13.3841 2.3201Z" fill="#84FF77"/>
<path d="M3.68689 9.6869C3.88215 9.49164 3.88215 9.17505 3.68689 8.97979C3.49162 8.78453 3.17504 8.78453 2.97978 8.97979L1.64645 10.3131C1.45118 10.5084 1.45118 10.825 1.64645 11.0202C1.84171 11.2155 2.15829 11.2155 2.35355 11.0202L3.68689 9.6869Z" fill="#84FF77"/>
<path d="M13.0202 8.97979C12.825 8.78453 12.5084 8.78453 12.3131 8.97979C12.1179 9.17505 12.1179 9.49164 12.3131 9.6869L13.6464 11.0202C13.8417 11.2155 14.1583 11.2155 14.3536 11.0202C14.5488 10.825 14.5488 10.5084 14.3536 10.3131L13.0202 8.97979Z" fill="#84FF77"/>
<path d="M8.5 12.6667C8.5 12.3905 8.27614 12.1667 8 12.1667C7.72386 12.1667 7.5 12.3905 7.5 12.6667V14C7.5 14.2762 7.72386 14.5 8 14.5C8.27614 14.5 8.5 14.2762 8.5 14V12.6667Z" fill="#84FF77"/>
<path d="M8.50337 3.19785C8.26791 2.83619 7.73209 2.83619 7.49663 3.19785L6.29036 5.05063C6.20934 5.17507 6.08392 5.26496 5.93893 5.30252L3.78005 5.86178C3.35864 5.97095 3.19306 6.47369 3.46895 6.80638L4.88231 8.51071C4.97724 8.62518 5.02514 8.77063 5.01655 8.91828L4.88856 11.1167C4.86357 11.5458 5.29706 11.8565 5.70303 11.7005L7.7828 10.9011C7.92249 10.8474 8.07751 10.8474 8.2172 10.9011L10.297 11.7005C10.7029 11.8565 11.1364 11.5458 11.1114 11.1167L10.9835 8.91829C10.9749 8.77063 11.0228 8.62518 11.1177 8.51071L12.531 6.80638C12.8069 6.47369 12.6414 5.97095 12.2199 5.86178L10.0611 5.30252C9.91608 5.26496 9.79066 5.17507 9.70964 5.05063L8.50337 3.19785Z" fill="#84FF77"/>
</svg>
