<svg width="37" height="42" viewBox="0 0 37 42" fill="none" xmlns="http://www.w3.org/2000/svg">
<path d="M2.43936 42H34.5606C35.891 42 36.9697 41.1452 36.9697 40.0909V18.4545C36.9697 17.4002 35.891 16.5455 34.5606 16.5455H32.1515V10.8182C32.1515 4.85304 26.0274 0 18.5 0C10.9725 0 4.84845 4.85304 4.84845 10.8182V16.5455H2.43936C1.1089 16.5455 0.0302734 17.4002 0.0302734 18.4545V40.0909C0.0302734 41.1452 1.1089 42 2.43936 42ZM20.9091 29.9073V32.4545C20.9091 33.5089 19.8304 34.3636 18.5 34.3636C17.1695 34.3636 16.0909 33.5089 16.0909 32.4545V29.9073C15.1163 29.3263 14.4848 28.4024 14.4848 27.3636C14.4848 25.6092 16.286 24.1818 18.5 24.1818C20.7139 24.1818 22.5151 25.6092 22.5151 27.3636C22.5151 28.4024 21.8836 29.3263 20.9091 29.9073ZM9.66664 10.8182C9.66664 6.95838 13.6293 3.81818 18.5 3.81818C23.3707 3.81818 27.3333 6.95838 27.3333 10.8182V16.5455H9.66664V10.8182Z" fill="#9F84EB"/>
</svg>
