<svg width="13" height="13" viewBox="0 0 13 13" fill="none" xmlns="http://www.w3.org/2000/svg">
<path fill-rule="evenodd" clip-rule="evenodd" d="M2.84367 5.44625V4.33334C2.84367 2.31405 4.48063 0.677094 6.49992 0.677094C8.5192 0.677094 10.1562 2.31405 10.1562 4.33334V5.44625C10.76 5.49137 11.1532 5.60518 11.4406 5.89264C11.9166 6.3686 11.9166 7.13463 11.9166 8.66668C11.9166 10.1987 11.9166 10.9648 11.4406 11.4407C10.9647 11.9167 10.1986 11.9167 8.66658 11.9167H4.33325C2.80119 11.9167 2.03516 11.9167 1.5592 11.4407C1.08325 10.9648 1.08325 10.1987 1.08325 8.66668C1.08325 7.13463 1.08325 6.3686 1.5592 5.89264C1.84663 5.60518 2.23985 5.49137 2.84367 5.44625ZM3.65617 4.33334C3.65617 2.76279 4.92936 1.48959 6.49992 1.48959C8.07048 1.48959 9.34367 2.76279 9.34367 4.33334V5.41863C9.13621 5.41668 8.91115 5.41668 8.66658 5.41668H4.33325C4.08868 5.41668 3.86363 5.41668 3.65617 5.41863V4.33334Z" fill="white"/>
</svg>
