<svg width="14" height="13" viewBox="0 0 14 13" fill="none" xmlns="http://www.w3.org/2000/svg">
<g clip-path="url(#clip0_18_381)">
<path d="M4.18109 0.891907C3.4606 0.891907 2.85477 1.39716 2.67273 2.07465H1.86023C1.80662 2.07444 1.75349 2.08503 1.70391 2.10582C1.65433 2.12662 1.60929 2.1572 1.57138 2.1958C1.53347 2.2344 1.50343 2.28026 1.48301 2.33074C1.46259 2.38122 1.45219 2.43531 1.4524 2.4899C1.4526 2.54422 1.46332 2.59796 1.48392 2.64807C1.50453 2.69817 1.53463 2.74365 1.5725 2.78191C1.61037 2.82017 1.65528 2.85046 1.70464 2.87105C1.75401 2.89164 1.80688 2.90213 1.86023 2.90192H2.67115C2.85195 3.58128 3.45929 4.0887 4.18109 4.0887C4.89562 4.0887 5.49791 3.5911 5.68549 2.92212L12.4211 2.90192C12.4745 2.90181 12.5273 2.89101 12.5766 2.87012C12.6258 2.84924 12.6705 2.81868 12.7082 2.7802C12.7458 2.74171 12.7757 2.69605 12.796 2.64583C12.8163 2.5956 12.8267 2.5418 12.8266 2.48748C12.8264 2.37805 12.7836 2.27317 12.7076 2.1958C12.6316 2.11843 12.5286 2.07486 12.4211 2.07465L5.6966 2.09485C5.52155 1.40695 4.90889 0.891908 4.18109 0.891907ZM4.18109 1.71918C4.6044 1.71918 4.93885 2.05891 4.93885 2.4899C4.93885 2.92089 4.6044 3.26143 4.18109 3.26143C3.75779 3.26143 3.42414 2.92089 3.42414 2.4899C3.42414 2.05891 3.75779 1.71918 4.18109 1.71918ZM8.5213 4.88931C7.78889 4.88931 7.17252 5.40354 6.99073 6.09306H1.86023C1.80682 6.09285 1.75388 6.10336 1.70446 6.12401C1.65504 6.14465 1.6101 6.17501 1.57222 6.21336C1.53434 6.2517 1.50426 6.29728 1.4837 6.34747C1.46314 6.39767 1.4525 6.4515 1.4524 6.50589C1.45229 6.56041 1.46277 6.61442 1.48324 6.6648C1.50371 6.71519 1.53376 6.76095 1.57166 6.79947C1.60956 6.83798 1.65457 6.86849 1.70409 6.88923C1.75362 6.90998 1.80668 6.92055 1.86023 6.92033H6.99152C7.1739 7.60965 7.7895 8.12489 8.5213 8.12489C9.25311 8.12489 9.86871 7.60965 10.0511 6.92033H12.4211C12.4745 6.92023 12.5273 6.90942 12.5766 6.88854C12.6258 6.86765 12.6705 6.83709 12.7082 6.79861C12.7458 6.76013 12.7757 6.71447 12.796 6.66424C12.8163 6.61402 12.8267 6.56021 12.8266 6.50589C12.8264 6.39647 12.7836 6.29159 12.7076 6.21421C12.6316 6.13684 12.5286 6.09328 12.4211 6.09306H10.0519C9.87009 5.40354 9.25372 4.88931 8.5213 4.88931ZM8.5213 5.71659C8.9555 5.71659 9.29889 6.06381 9.29889 6.50589C9.29889 6.94797 8.9555 7.29761 8.5213 7.29761C8.08711 7.29761 7.74372 6.94797 7.74372 6.50589C7.74372 6.06381 8.08711 5.71659 8.5213 5.71659ZM5.36414 9.10647C4.63258 9.10647 4.01617 9.62123 3.83356 10.3102H1.86023C1.80662 10.31 1.75349 10.3206 1.70391 10.3414C1.65433 10.3622 1.60929 10.3928 1.57138 10.4314C1.53346 10.47 1.50343 10.5158 1.48301 10.5663C1.46259 10.6168 1.45219 10.6709 1.4524 10.7255C1.4526 10.7798 1.46332 10.8335 1.48392 10.8836C1.50453 10.9337 1.53463 10.9792 1.5725 11.0175C1.61037 11.0557 1.65528 11.086 1.70464 11.1066C1.75401 11.1272 1.80688 11.1377 1.86023 11.1375H3.83277C4.01421 11.8282 4.63136 12.3445 5.36414 12.3445C6.0969 12.3445 6.71325 11.8282 6.89472 11.1375H12.4211C12.5285 11.1373 12.6314 11.0938 12.7073 11.0166C12.7833 10.9394 12.8262 10.8347 12.8266 10.7255C12.8268 10.6711 12.8165 10.6172 12.7962 10.5669C12.7759 10.5165 12.7461 10.4708 12.7085 10.4322C12.6708 10.3937 12.626 10.363 12.5767 10.3421C12.5274 10.3211 12.4746 10.3103 12.4211 10.3102H6.89392C6.71129 9.62127 6.09568 9.10647 5.36414 9.10647ZM5.36414 9.93374C5.79834 9.93374 6.14173 10.2834 6.14173 10.7255C6.14173 11.1675 5.79834 11.5172 5.36414 11.5172C4.92994 11.5172 4.58655 11.1675 4.58655 10.7255C4.58655 10.2834 4.92994 9.93374 5.36414 9.93374Z" fill="white"/>
</g>
<defs>
<clipPath id="clip0_18_381">
<rect width="13" height="13" fill="white" transform="translate(0.639526)"/>
</clipPath>
</defs>
</svg>
