<svg width="16" height="16" viewBox="0 0 16 16" fill="none" xmlns="http://www.w3.org/2000/svg">
<path d="M14.3254 2.85858L14.3238 2.84421C14.3298 2.8954 14.3328 2.9475 14.3328 3.00033C14.3328 2.95259 14.3303 2.90529 14.3254 2.85858ZM10.0927 8.06099L12.6877 5.46599C12.7282 5.6619 12.7584 5.88556 12.7802 6.14657C12.8326 6.77568 12.833 7.57387 12.833 8.66699C12.833 9.79773 12.8325 10.6124 12.7748 11.2497C12.7176 11.8803 12.6076 12.2881 12.4177 12.617C12.1456 13.0883 11.7543 13.4796 11.283 13.7517C10.9541 13.9416 10.5463 14.0516 9.91576 14.1087C9.27837 14.1665 8.46375 14.167 7.33301 14.167C6.20227 14.167 5.38764 14.1665 4.75025 14.1087C4.11974 14.0516 3.71192 13.9416 3.38301 13.7517C2.91175 13.4796 2.52041 13.0883 2.24833 12.617L1.81617 12.8665L2.24833 12.617C2.05843 12.2881 1.9484 11.8803 1.89126 11.2497C1.83349 10.6124 1.83301 9.79773 1.83301 8.66699C1.83301 7.53625 1.83349 6.72163 1.89126 6.08424C1.9484 5.45373 2.05843 5.0459 2.24833 4.71699C2.52041 4.24573 2.91175 3.8544 3.38301 3.58231C3.71192 3.39242 4.11974 3.28239 4.75025 3.22524C5.38764 3.16747 6.20227 3.16699 7.33301 3.16699C8.44506 3.16699 9.25163 3.16743 9.88499 3.22251C10.1562 3.24609 10.3866 3.27914 10.5874 3.32371L7.9714 5.93967C7.38562 6.52545 7.38562 7.4752 7.9714 8.06099C8.55719 8.64677 9.50694 8.64677 10.0927 8.06099ZM13.2526 1.69092L13.2326 1.68737C13.1565 1.67394 13.0786 1.66699 12.9995 1.66699C13.0861 1.66699 13.1707 1.67521 13.2526 1.69092Z" stroke="#9F84EB" stroke-linecap="round"/>
</svg>
