<svg width="17" height="17" viewBox="0 0 17 17" fill="none" xmlns="http://www.w3.org/2000/svg">
<g clip-path="url(#clip0_18_1054)">
<path d="M16.2815 7.90723C15.8858 7.90723 15.5594 8.19536 15.5594 8.59459C15.5247 11.1948 14.025 13.545 11.7303 14.8052C8.2727 16.7041 4.23184 14.9996 2.68354 12.6875L4.86713 13.1423C5.22817 13.2152 5.62392 12.9965 5.69682 12.6007C5.76973 12.2397 5.55102 11.8439 5.15527 11.771L0.860986 10.8684C0.611036 10.8094 -0.0450828 10.9899 0.0312908 11.6634L0.572849 15.9959C0.607564 16.3569 0.899173 16.6103 1.26021 16.6103C1.7983 16.6103 2.017 16.2146 1.98229 15.8154L1.72887 13.7012C5.23858 17.9122 9.69255 17.3255 12.3795 16.107C15.1602 14.6246 16.9307 11.7745 16.9654 8.6293C16.9689 8.23355 16.6773 7.90723 16.2815 7.90723Z" fill="#9F84EB"/>
<path d="M0.715195 9.09103C1.11095 9.09103 1.43727 8.80289 1.43727 8.40366C1.47199 5.80349 2.97169 3.45326 5.26637 2.1931C8.72401 0.294175 12.7649 1.99869 14.3132 4.31073L12.1296 3.85596C11.7685 3.78306 11.3728 4.00177 11.2999 4.39752C11.227 4.75856 11.4457 5.15431 11.8414 5.22721L16.1392 6.12981C16.3891 6.18883 17.0453 6.00831 16.9689 5.33483L16.4273 1.00237C16.3926 0.641328 16.101 0.387906 15.74 0.387906C15.2019 0.387906 14.9832 0.78366 15.0179 1.18289L15.2678 3.29705C11.7581 -0.910445 7.30415 -0.327229 4.61719 0.894749C1.8365 2.37362 0.0660188 5.22721 0.027832 8.36895C0.027832 8.76817 0.31944 9.09103 0.715195 9.09103Z" fill="#9F84EB"/>
</g>
<defs>
<clipPath id="clip0_18_1054">
<rect width="17" height="17" fill="white"/>
</clipPath>
</defs>
</svg>
