<svg width="20" height="20" viewBox="0 0 20 20" fill="none" xmlns="http://www.w3.org/2000/svg">
<path d="M8.4001 1.2C4.64072 1.2 1.6001 4.24062 1.6001 8C1.6001 11.7594 4.64072 14.8 8.4001 14.8C9.74228 14.8 10.9845 14.4062 12.0376 13.7375L16.9501 18.65L18.6501 16.95L13.8001 12.1125C14.672 10.9687 15.2001 9.55156 15.2001 8C15.2001 4.24062 12.1595 1.2 8.4001 1.2ZM8.4001 2.8C11.2798 2.8 13.6001 5.12031 13.6001 8C13.6001 10.8797 11.2798 13.2 8.4001 13.2C5.52041 13.2 3.2001 10.8797 3.2001 8C3.2001 5.12031 5.52041 2.8 8.4001 2.8Z" fill="white"/>
</svg>
