<svg width="14" height="14" viewBox="0 0 14 14" fill="none" xmlns="http://www.w3.org/2000/svg">
<g clip-path="url(#clip0_133_809)">
<path d="M14 7.90769V5.75385H12.0562C11.9201 5.11378 11.6652 4.51772 11.3157 3.98972L12.6178 2.68757L11.0948 1.16455L9.77926 2.48012C9.22803 2.1292 8.6056 1.88012 7.93846 1.75948V0H5.78462V1.8252C5.12905 1.98585 4.5228 2.27182 3.99262 2.6564L2.71834 1.38215L1.19535 2.90514L2.54855 4.25834C2.23354 4.80415 2.01578 5.41311 1.91874 6.06154H0V8.21538H2.04994C2.21597 8.81206 2.48671 9.36505 2.84105 9.85354L1.41292 11.2817L2.93591 12.8047L4.44295 11.2976C4.94538 11.5876 5.50132 11.7952 6.09231 11.9021V14H8.24615V11.8363C8.828 11.6938 9.37099 11.4525 9.85643 11.1311L11.3124 12.5871L12.8354 11.0641L11.366 9.59468C11.6898 9.08603 11.9267 8.51674 12.0562 7.90769H14ZM7.01538 9.52308C5.53083 9.52308 4.32308 8.31532 4.32308 6.83077C4.32308 5.34622 5.53083 4.13846 7.01538 4.13846C8.49994 4.13846 9.70769 5.34622 9.70769 6.83077C9.70769 8.31532 8.49994 9.52308 7.01538 9.52308Z" fill="#484848"/>
</g>
<defs>
<clipPath id="clip0_133_809">
<rect width="14" height="14" fill="white"/>
</clipPath>
</defs>
</svg>
