<svg width="14" height="14" viewBox="0 0 14 14" fill="none" xmlns="http://www.w3.org/2000/svg">
<g clip-path="url(#clip0_133_546)">
<path fill-rule="evenodd" clip-rule="evenodd" d="M7 3.5C5.067 3.5 3.5 5.067 3.5 7C3.5 8.93296 5.067 10.5 7 10.5C8.93296 10.5 10.5 8.93296 10.5 7C10.5 5.067 8.93296 3.5 7 3.5ZM5.25 7C5.25 6.0335 6.0335 5.25 7 5.25C7.9665 5.25 8.75 6.0335 8.75 7C8.75 7.9665 7.9665 8.75 7 8.75C6.0335 8.75 5.25 7.9665 5.25 7Z" fill="white"/>
<path fill-rule="evenodd" clip-rule="evenodd" d="M7 0C3.134 0 0 3.134 0 7C0 10.866 3.134 14 7 14C10.866 14 14 10.866 14 7C14 3.134 10.866 0 7 0ZM1.75 7C1.75 4.1005 4.1005 1.75 7 1.75C9.89949 1.75 12.25 4.1005 12.25 7C12.25 9.89949 9.89949 12.25 7 12.25C4.1005 12.25 1.75 9.89949 1.75 7Z" fill="white"/>
</g>
<defs>
<clipPath id="clip0_133_546">
<rect width="14" height="14" fill="white"/>
</clipPath>
</defs>
</svg>
