<svg width="12" height="12" viewBox="0 0 12 12" fill="none" xmlns="http://www.w3.org/2000/svg">
<g clip-path="url(#clip0_133_540)">
<path fill-rule="evenodd" clip-rule="evenodd" d="M8.78305 10.8825C8.93688 10.9914 9.13515 11.0186 9.31191 10.9518C9.48868 10.8844 9.61862 10.7334 9.6578 10.5505C10.073 8.59935 11.08 3.6609 11.4579 1.88608C11.4866 1.75231 11.4388 1.61329 11.3337 1.52395C11.2286 1.43461 11.0829 1.40881 10.953 1.45706C8.94978 2.19852 2.78066 4.5132 0.259128 5.44623C0.0990832 5.50547 -0.00506512 5.65931 0.000190073 5.82795C0.00592301 5.99707 0.119626 6.14374 0.283493 6.19295C1.41431 6.53119 2.89867 7.00177 2.89867 7.00177C2.89867 7.00177 3.59235 9.09668 3.95401 10.1621C3.99939 10.2958 4.10402 10.4009 4.24208 10.4372C4.37968 10.4731 4.52682 10.4353 4.62954 10.3383C5.21047 9.78989 6.10863 8.94189 6.10863 8.94189C6.10863 8.94189 7.81514 10.1931 8.78305 10.8825ZM3.52308 6.7371L4.32521 9.38285L4.50341 7.7074C4.50341 7.7074 7.60254 4.91211 9.36924 3.31883C9.42084 3.27202 9.428 3.19367 9.38501 3.13872C9.34249 3.08378 9.26414 3.07089 9.20537 3.10815C7.15776 4.41574 3.52308 6.7371 3.52308 6.7371Z" fill="white"/>
</g>
<defs>
<clipPath id="clip0_133_540">
<rect width="11.4659" height="11.4659" fill="white"/>
</clipPath>
</defs>
</svg>
