<svg width="13" height="12" viewBox="0 0 13 12" fill="none" xmlns="http://www.w3.org/2000/svg">
<path d="M9.0871 3.62458H7.1875C6.04841 3.62458 5.125 4.50588 5.125 5.59301V9.52988C5.125 10.617 6.04841 11.4983 7.1875 11.4983H9.9375C11.0766 11.4983 12 10.617 12 9.52988V6.5399C12 6.07001 11.8239 5.61562 11.5035 5.25886L10.6531 4.31197C10.2612 3.87568 9.68919 3.62458 9.0871 3.62458Z" stroke="#9F84EB" stroke-width="0.6875" stroke-linecap="round" stroke-linejoin="round"/>
<path d="M4.9621 1H3.0625C1.92341 1 1 1.8813 1 2.96843V6.9053C1 7.99244 1.92341 8.87373 3.0625 8.87373H4.09375V5.26494C4.09375 3.81542 5.32497 2.64036 6.84375 2.64036H7.38391C7.3821 2.63833 7.38028 2.6363 7.37847 2.63428L6.52807 1.68739C6.13623 1.2511 5.56419 1 4.9621 1Z" stroke="#9F84EB" stroke-width="0.6875" stroke-linecap="round" stroke-linejoin="round"/>
</svg>
