<svg width="17" height="16" viewBox="0 0 17 16" fill="none" xmlns="http://www.w3.org/2000/svg">
<path d="M16.8591 11.227V2.68335C16.8591 2.2115 16.5462 1.82898 16.1601 1.82898H13.7135C13.3274 1.82898 13.0145 2.2115 13.0145 2.68335V11.227C13.0145 11.6989 13.3274 12.0814 13.7135 12.0814H16.1601C16.5462 12.0814 16.8591 11.6989 16.8591 11.227Z" fill="#FF6565"/>
<path d="M5.57071 11.3524L4.90966 13.01C4.34208 14.4333 5.59587 15.9125 7.09294 15.5858C7.35341 15.529 7.59288 15.4007 7.78444 15.2152L11.0219 12.0814L11.9032 11.3988C12.7389 10.7515 13.2281 9.75397 13.2281 8.69692V5.03705C13.2281 3.84117 12.6029 2.73228 11.5798 2.11318L10.5139 1.46821C9.98024 1.14531 9.36841 0.974609 8.74468 0.974609H4.76685C3.23179 0.974609 1.88508 1.99815 1.47412 3.47718L0.160047 8.20647C-0.142491 9.2953 0.676334 10.3727 1.80641 10.3727H4.90668C5.41211 10.3727 5.75793 10.8829 5.57071 11.3524Z" fill="#FF6565"/>
</svg>
