<svg width="13" height="13" viewBox="0 0 13 13" fill="none" xmlns="http://www.w3.org/2000/svg">
<path d="M12.9218 6.97049L12.4185 7.47373C12.3685 7.52379 12.3006 7.5519 12.2298 7.5519C12.159 7.5519 12.0911 7.52379 12.0411 7.47373L10.4354 5.86809V7.91417C10.4354 9.69409 8.98735 11.1422 7.20739 11.1422H5.77492C5.62751 11.1422 5.50806 11.0227 5.50806 10.8753V10.1637C5.50806 10.0163 5.62751 9.89684 5.77492 9.89684H7.20746C8.30072 9.89684 9.19013 9.00743 9.19013 7.91417V5.86809L7.58449 7.47373C7.53442 7.52379 7.46657 7.5519 7.39576 7.5519C7.32499 7.5519 7.25713 7.52379 7.20703 7.47373L6.70379 6.97049C6.65377 6.92046 6.62566 6.85257 6.62566 6.7818C6.62566 6.71103 6.65377 6.64314 6.70379 6.59311L9.62405 3.67285C9.67618 3.62076 9.7445 3.59467 9.81278 3.59467C9.88106 3.59467 9.94938 3.62072 10.0015 3.67285L12.9218 6.59311C12.9718 6.64314 12.9999 6.71103 12.9999 6.7818C12.9999 6.85257 12.9718 6.92046 12.9218 6.97049Z" fill="white"/>
<path d="M7.22502 3.10319H5.79249C4.69922 3.10319 3.80981 3.9926 3.80981 5.08586V7.13194L5.41546 5.52626C5.46552 5.47619 5.53338 5.44808 5.60418 5.44808C5.67496 5.44808 5.74281 5.47619 5.79291 5.52626L6.29615 6.02949C6.34618 6.07952 6.37429 6.14741 6.37429 6.21819C6.37429 6.28896 6.34618 6.35685 6.29615 6.40688L3.37589 9.32714C3.27163 9.43136 3.10269 9.43136 2.99847 9.32714L0.0781384 6.40691C0.0281099 6.35685 0 6.28896 0 6.21819C0 6.14741 0.0281099 6.07952 0.0781384 6.02949L0.581376 5.52626C0.63144 5.47619 0.699296 5.44808 0.770104 5.44808C0.840912 5.44808 0.908768 5.47619 0.958832 5.52626L2.56447 7.13194V5.08586C2.56447 3.30593 4.01256 1.85781 5.79252 1.85781H7.22506C7.37247 1.85781 7.49192 1.9773 7.49192 2.12468V2.83632C7.49189 2.9837 7.3724 3.10319 7.22502 3.10319Z" fill="#474747"/>
</svg>
