<svg width="15" height="15" viewBox="0 0 15 15" fill="none" xmlns="http://www.w3.org/2000/svg">
<g clip-path="url(#clip0_133_699)">
<path d="M11.0141 11.2522C10.2954 11.2522 9.71058 10.6674 9.71058 9.94863V7.7838C9.71058 7.06503 10.2954 6.48028 11.0141 6.48028H14.4107C14.4313 6.48028 14.4518 6.4809 14.4721 6.48182V4.3253C14.4721 3.77019 14.0221 3.32019 13.467 3.32019H1.00514C0.450002 3.32016 0 3.77016 0 4.32527V13.4071C0 13.9622 0.450002 14.4123 1.00514 14.4123H13.467C14.0221 14.4123 14.4721 13.9623 14.4721 13.4071V11.2506C14.4518 11.2516 14.4313 11.2522 14.4107 11.2522H11.0141Z" fill="#484848"/>
<path d="M14.4107 7.19446H11.0141C10.6886 7.19446 10.4248 7.45829 10.4248 7.78372V9.94855C10.4248 10.274 10.6886 10.5378 11.0141 10.5378H14.4107C14.7361 10.5378 14.9999 10.274 14.9999 9.94855V7.78372C14.9999 7.45826 14.7361 7.19446 14.4107 7.19446ZM12.1845 9.71661C11.7148 9.71661 11.334 9.33583 11.334 8.8661C11.334 8.39637 11.7148 8.01559 12.1845 8.01559C12.6542 8.01559 13.035 8.39637 13.035 8.8661C13.035 9.33583 12.6542 9.71661 12.1845 9.71661Z" fill="#484848"/>
<path d="M11.7168 1.47898C11.4919 0.798354 10.7578 0.428891 10.0772 0.653761L4.97095 2.34075H12.0015L11.7168 1.47898Z" fill="#484848"/>
</g>
<defs>
<clipPath id="clip0_133_699">
<rect width="15" height="15" fill="white"/>
</clipPath>
</defs>
</svg>
